<svg width="44" height="42" viewBox="0 0 44 42" fill="none" xmlns="http://www.w3.org/2000/svg">
<g clip-path="url(#clip0_25_3)">
<mask id="mask0_25_3" style="mask-type:alpha" maskUnits="userSpaceOnUse" x="0" y="0" width="44" height="42">
<path d="M0 0H44V42H0V0Z" fill="white"/>
</mask>
<g mask="url(#mask0_25_3)">
<path fill-rule="evenodd" clip-rule="evenodd" d="M0 21.1173C0 31.5578 7.94383 40.2395 18.3333 42V26.8328H12.8333V21H18.3333V16.3328C18.3333 11.0828 21.8772 8.16725 26.8895 8.16725C28.4772 8.16725 30.1895 8.4 31.7772 8.63275V14H28.9667C26.2772 14 25.6667 15.2827 25.6667 16.9172V21H31.5333L30.5562 26.8328H25.6667V42C36.0562 40.2395 44 31.5595 44 21.1173C44 9.5025 34.1 0 22 0C9.9 0 0 9.5025 0 21.1173Z" fill="black"/>
</g>
</g>
<defs>
<clipPath id="clip0_25_3">
<rect width="44" height="42" fill="white"/>
</clipPath>
</defs>
</svg>
