<svg width="49" height="45" viewBox="0 0 49 45" fill="none" xmlns="http://www.w3.org/2000/svg">
<path d="M24.5 15.0801C20.1275 15.0801 16.5593 18.4144 16.5593 22.5001C16.5593 26.5858 20.1275 29.9201 24.5 29.9201C28.8725 29.9201 32.4407 26.5858 32.4407 22.5001C32.4407 18.4144 28.8725 15.0801 24.5 15.0801ZM48.3162 22.5001C48.3162 19.4274 48.346 16.3826 48.1613 13.3155C47.9767 9.75302 47.1069 6.5913 44.3191 3.98623C41.5252 1.37558 38.1476 0.568453 34.3351 0.395894C31.0468 0.223335 27.7883 0.251167 24.506 0.251167C21.2177 0.251167 17.9592 0.223335 14.6769 0.395894C10.8644 0.568453 7.48077 1.38115 4.69288 3.98623C1.89903 6.59687 1.03526 9.75302 0.850594 13.3155C0.665926 16.3882 0.695711 19.433 0.695711 22.5001C0.695711 25.5672 0.665926 28.6176 0.850594 31.6847C1.03526 35.2472 1.90499 38.4089 4.69288 41.014C7.48673 43.6246 10.8644 44.4317 14.6769 44.6043C17.9651 44.7769 21.2236 44.749 24.506 44.749C27.7942 44.749 31.0527 44.7769 34.3351 44.6043C38.1476 44.4317 41.5312 43.619 44.3191 41.014C47.1129 38.4033 47.9767 35.2472 48.1613 31.6847C48.352 28.6176 48.3162 25.5728 48.3162 22.5001V22.5001ZM24.5 33.9168C17.7388 33.9168 12.2821 28.818 12.2821 22.5001C12.2821 16.1822 17.7388 11.0834 24.5 11.0834C31.2612 11.0834 36.7179 16.1822 36.7179 22.5001C36.7179 28.818 31.2612 33.9168 24.5 33.9168ZM37.2183 13.2821C35.6397 13.2821 34.3649 12.0909 34.3649 10.6158C34.3649 9.14072 35.6397 7.94951 37.2183 7.94951C38.7969 7.94951 40.0717 9.14072 40.0717 10.6158C40.0722 10.9661 39.9987 11.313 39.8554 11.6367C39.7122 11.9604 39.502 12.2545 39.237 12.5022C38.9719 12.7498 38.6572 12.9462 38.3108 13.0801C37.9644 13.2139 37.5931 13.2826 37.2183 13.2821V13.2821Z" fill="black"/>
</svg>
