<svg width="38" height="39" viewBox="0 0 38 39" fill="none" xmlns="http://www.w3.org/2000/svg">
<g clip-path="url(#clip0_27_16)">
<mask id="mask0_27_16" style="mask-type:alpha" maskUnits="userSpaceOnUse" x="0" y="0" width="38" height="39">
<path d="M0 0H38V39H0V0Z" fill="white"/>
</mask>
<g mask="url(#mask0_27_16)">
<mask id="mask1_27_16" style="mask-type:alpha" maskUnits="userSpaceOnUse" x="0" y="0" width="38" height="39">
<path d="M0 0H38V39H0V0Z" fill="white"/>
</mask>
<g mask="url(#mask1_27_16)">
<path d="M0 19.5C0 27.8249 5.08408 34.9326 12.2392 37.7293C12.065 36.2066 11.8798 33.696 12.2788 31.9345C12.6223 30.42 14.497 22.2852 14.497 22.2852C14.497 22.2852 13.9318 21.1234 13.9318 19.4025C13.9318 16.705 15.4549 14.69 17.3533 14.69C18.9683 14.69 19.7473 15.9331 19.7473 17.4233C19.7473 19.0889 18.7134 21.5784 18.1798 23.8875C17.7349 25.8196 19.1251 27.3959 20.9808 27.3959C24.3422 27.3959 26.9278 23.7575 26.9278 18.5055C26.9278 13.8564 23.6724 10.608 19.0253 10.608C13.6452 10.608 10.4864 14.7501 10.4864 19.032C10.4864 20.7009 11.1118 22.4884 11.894 23.4617C11.9607 23.5353 12.0078 23.6252 12.0308 23.7228C12.0538 23.8204 12.052 23.9225 12.0254 24.0191C11.8813 24.6334 11.5615 25.9512 11.4998 26.221C11.4158 26.5752 11.2258 26.6516 10.8664 26.4794C8.50408 25.3516 7.02842 21.8075 7.02842 18.9605C7.02842 12.8359 11.362 7.21338 19.5241 7.21338C26.0854 7.21338 31.1853 12.012 31.1853 18.4243C31.1853 25.1144 27.0766 30.4996 21.3703 30.4996C19.4528 30.4996 17.6526 29.4759 17.0351 28.2685C17.0351 28.2685 16.0867 31.9768 15.8571 32.8835C15.4106 34.645 14.1724 36.8745 13.4045 38.1404C15.1747 38.6994 17.0525 39 19 39C29.4928 39 38 30.2689 38 19.5C38 8.73113 29.4928 0 19 0C8.50725 0 0 8.73113 0 19.5Z" fill="black"/>
</g>
</g>
</g>
<defs>
<clipPath id="clip0_27_16">
<rect width="38" height="39" fill="white"/>
</clipPath>
</defs>
</svg>
