<svg width="53" height="51" viewBox="0 0 53 51" fill="none" xmlns="http://www.w3.org/2000/svg">
<path d="M26.5 0.5625C12.2455 0.5625 0.6875 11.7287 0.6875 25.5C0.6875 39.2713 12.2455 50.4375 26.5 50.4375C40.7545 50.4375 52.3125 39.2713 52.3125 25.5C52.3125 11.7287 40.7545 0.5625 26.5 0.5625ZM38.905 19.3603C38.9223 19.6219 38.9223 19.8946 38.9223 20.1618C38.9223 28.3333 32.4807 37.7461 20.7095 37.7461C17.0796 37.7461 13.7147 36.7274 10.88 34.974C11.3985 35.0297 11.894 35.052 12.4241 35.052C15.4202 35.052 18.1743 34.0723 20.3695 32.4135C17.5578 32.3578 15.1955 30.5766 14.3889 28.1273C15.3741 28.2665 16.2614 28.2665 17.2755 28.016C15.8277 27.7319 14.5264 26.9722 13.5927 25.8662C12.659 24.7601 12.1504 23.3759 12.1533 21.9486V21.8707C13.0003 22.3327 13.9971 22.6166 15.0399 22.6556C14.1633 22.0911 13.4443 21.3264 12.9468 20.4292C12.4493 19.532 12.1886 18.53 12.1879 17.5122C12.1879 16.36 12.499 15.3079 13.0579 14.395C14.6649 16.3062 16.6701 17.8692 18.9433 18.9827C21.2165 20.0961 23.7068 20.7349 26.2522 20.8576C25.3477 16.655 28.5973 13.2539 32.5037 13.2539C34.3475 13.2539 36.0068 13.9998 37.1765 15.2021C38.6227 14.9405 40.0055 14.4173 41.2385 13.7159C40.7603 15.1465 39.7577 16.3544 38.4268 17.117C39.7174 16.9834 40.9619 16.6383 42.1143 16.154C41.2442 17.3897 40.1553 18.4863 38.905 19.3603V19.3603Z" fill="black"/>
</svg>
